<svg width="960" height="764" viewBox="0 0 960 764" fill="none" xmlns="http://www.w3.org/2000/svg">
<g clip-path="url(#clip0_4_1110)">
<path fill-rule="evenodd" clip-rule="evenodd" d="M-2.31885 -2.31515C317.681 -2.31515 637.681 -2.31515 957.681 -2.31515C957.681 252.352 957.681 507.018 957.681 761.685C637.681 761.685 317.681 761.685 -2.31885 761.685C-2.31885 507.018 -2.31885 252.352 -2.31885 -2.31515Z" fill="#FDFDFC"/>
<path fill-rule="evenodd" clip-rule="evenodd" d="M475.362 104.182C479.986 104.043 483.079 106.359 484.638 111.127C479.546 122.519 474.908 134.095 470.725 145.855C461.404 153.593 450.583 156.68 438.261 155.115C439.874 130.35 452.241 113.372 475.362 104.182Z" fill="#598847"/>
<path fill-rule="evenodd" clip-rule="evenodd" d="M401.159 113.442C412.401 112.018 423.222 113.562 433.623 118.073C425.756 135.188 413.389 147.535 396.522 155.115C388.035 154.747 381.851 150.888 377.971 143.539C381.603 129.936 389.332 119.904 401.159 113.442Z" fill="#94C84C"/>
<path fill-rule="evenodd" clip-rule="evenodd" d="M521.739 108.812C535.949 107.162 548.318 111.021 558.841 120.388C566.516 127.075 569.609 135.564 568.116 145.855C558.715 146.605 549.44 145.834 540.29 143.539C533.398 132.082 527.216 120.506 521.739 108.812Z" fill="#92C84A"/>
<path fill-rule="evenodd" clip-rule="evenodd" d="M503.188 127.333C507.826 127.333 512.464 127.333 517.101 127.333C514.639 140.006 510.776 152.354 505.507 164.376C497.21 172.382 487.161 175.469 475.362 173.636C474.954 152.43 484.23 136.995 503.188 127.333Z" fill="#91C747"/>
<path fill-rule="evenodd" clip-rule="evenodd" d="M619.13 164.376C619.13 170.549 619.13 176.723 619.13 182.897C612.948 182.897 606.762 182.897 600.58 182.897C596.517 183.503 593.424 181.959 591.304 178.267C584.111 165.029 579.474 151.138 577.391 136.594C596.359 138.594 610.272 147.854 619.13 164.376Z" fill="#588746"/>
<path fill-rule="evenodd" clip-rule="evenodd" d="M326.957 150.485C339.696 149.034 352.063 150.577 364.058 155.115C355.767 164.73 348.038 174.762 340.87 185.212C330.344 188.722 320.296 187.95 310.725 182.897C307.633 178.267 307.633 173.636 310.725 169.006C317.104 163.426 322.515 157.252 326.957 150.485Z" fill="#598746"/>
<path fill-rule="evenodd" clip-rule="evenodd" d="M447.536 169.006C447.814 166.491 449.36 164.948 452.174 164.376C458.204 177.383 458.204 189.731 452.174 201.418C453.573 189.568 452.026 178.764 447.536 169.006Z" fill="#A1BB98"/>
<path fill-rule="evenodd" clip-rule="evenodd" d="M535.652 155.115C541.575 160.642 544.668 168.359 544.928 178.267C547.13 202.293 536.306 214.641 512.464 215.309C508.652 190.555 516.383 170.49 535.652 155.115Z" fill="#5C8949"/>
<path fill-rule="evenodd" clip-rule="evenodd" d="M633.044 164.376C645.101 170.945 656.696 178.662 667.826 187.527C673.633 199.166 675.951 211.513 674.783 224.57C660.165 227.077 648.57 222.446 640 210.679C636.169 195.432 633.85 179.997 633.044 164.376Z" fill="#91C748"/>
<path fill-rule="evenodd" clip-rule="evenodd" d="M619.13 164.376C623.541 170.945 625.085 178.662 623.768 187.527C614.887 188.845 607.161 187.301 600.58 182.897C606.762 182.897 612.948 182.897 619.13 182.897C619.13 176.723 619.13 170.549 619.13 164.376Z" fill="#9BB590"/>
<path fill-rule="evenodd" clip-rule="evenodd" d="M391.884 169.006C397.419 171.184 400.511 175.814 401.159 182.897C401.108 198.383 393.378 206.101 377.971 206.048C377.479 191.627 382.117 179.28 391.884 169.006Z" fill="#5B8749"/>
<path fill-rule="evenodd" clip-rule="evenodd" d="M447.536 169.006C452.026 178.764 453.573 189.568 452.174 201.418C446.667 212.88 437.392 217.51 424.348 215.309C419.897 193.58 427.626 178.145 447.536 169.006Z" fill="#578644"/>
<path fill-rule="evenodd" clip-rule="evenodd" d="M572.754 173.636C588.601 184.709 594.783 200.143 591.304 219.939C580.021 220.991 572.294 216.361 568.116 206.048C566.715 194.198 568.264 183.394 572.754 173.636Z" fill="#598847"/>
<path fill-rule="evenodd" clip-rule="evenodd" d="M572.754 173.636C568.264 183.394 566.715 194.198 568.116 206.048C562.087 194.361 562.087 182.014 568.116 169.006C570.931 169.578 572.475 171.122 572.754 173.636Z" fill="#A7BF9E"/>
<path fill-rule="evenodd" clip-rule="evenodd" d="M475.362 187.527C486.465 195.758 494.191 206.562 498.551 219.939C492.295 241.323 483.789 242.866 473.044 224.57C470.252 211.973 471.026 199.625 475.362 187.527Z" fill="#5B8948"/>
<path fill-rule="evenodd" clip-rule="evenodd" d="M299.13 196.788C304.996 201.485 308.087 208.431 308.406 217.624C309.484 240.467 298.662 252.043 275.942 252.352C275.185 241.439 275.958 230.634 278.261 219.939C286.179 212.82 293.135 205.103 299.13 196.788Z" fill="#568644"/>
<path fill-rule="evenodd" clip-rule="evenodd" d="M609.855 206.048C620.939 206.904 625.577 213.078 623.768 224.57C624.672 234.871 620.805 242.588 612.174 247.721C604.141 246.64 600.274 242.009 600.58 233.83C603.724 224.496 606.813 215.235 609.855 206.048Z" fill="#5D8B4C"/>
<path fill-rule="evenodd" clip-rule="evenodd" d="M331.594 201.418C337.421 211.724 337.421 222.528 331.594 233.83C328.306 238.016 323.668 239.559 317.681 238.461C315.435 223.235 320.072 210.888 331.594 201.418Z" fill="#588645"/>
<path fill-rule="evenodd" clip-rule="evenodd" d="M331.594 201.418C331.872 198.903 333.418 197.36 336.232 196.788C339.333 206.655 342.425 215.915 345.507 224.57C341.479 234.835 339.933 245.639 340.87 256.982C337.778 249.264 334.686 241.548 331.594 233.83C337.421 222.528 337.421 211.724 331.594 201.418Z" fill="#C6DAB5"/>
<path fill-rule="evenodd" clip-rule="evenodd" d="M396.522 215.309C415.906 217.672 425.181 228.476 424.348 247.721C405.567 246.001 396.291 235.197 396.522 215.309Z" fill="#51823E"/>
<path fill-rule="evenodd" clip-rule="evenodd" d="M368.696 229.2C370.246 241.646 367.154 252.451 359.42 261.612C351.243 268.344 345.059 266.8 340.87 256.982C339.933 245.639 341.479 234.835 345.507 224.57C360.974 192.854 368.704 194.398 368.696 229.2Z" fill="#92C849"/>
<path fill-rule="evenodd" clip-rule="evenodd" d="M452.174 261.612C450.628 261.612 449.082 261.612 447.536 261.612C435.967 246.681 437.513 232.79 452.174 219.939C458.649 226.201 461.741 233.919 461.449 243.091C462.19 251.678 459.098 257.852 452.174 261.612Z" fill="#5B8A4A"/>
<path fill-rule="evenodd" clip-rule="evenodd" d="M554.203 266.242C547.024 264.755 543.93 260.125 544.928 252.352C549.788 242.934 557.514 236.761 568.116 233.83C572.67 247.954 568.032 258.758 554.203 266.242Z" fill="#548341"/>
<path fill-rule="evenodd" clip-rule="evenodd" d="M665.507 233.83C692.318 240.509 704.686 257.487 702.609 284.764C690.81 286.596 680.761 283.509 672.464 275.503C666.486 262.303 664.167 248.412 665.507 233.83Z" fill="#598847"/>
<path fill-rule="evenodd" clip-rule="evenodd" d="M521.739 270.873C518.646 270.873 515.557 270.873 512.464 270.873C506.834 260.186 506.834 249.382 512.464 238.461C515.181 239.43 517.5 240.973 519.42 243.091C521.716 252.225 522.49 261.486 521.739 270.873Z" fill="#5B894B"/>
<path fill-rule="evenodd" clip-rule="evenodd" d="M368.696 229.2C373.901 237.481 374.674 246.741 371.014 256.982C367.904 260.466 364.039 262.009 359.42 261.612C367.154 252.451 370.246 241.646 368.696 229.2Z" fill="#DCEDC4"/>
<path fill-rule="evenodd" clip-rule="evenodd" d="M544.928 252.352C543.93 260.125 547.024 264.755 554.203 266.242C552.617 270.124 549.528 271.667 544.928 270.873C543.383 270.873 541.834 270.873 540.29 270.873C539.047 263.469 540.596 257.295 544.928 252.352Z" fill="#9FB996"/>
<path fill-rule="evenodd" clip-rule="evenodd" d="M382.609 261.612C393.539 260.856 404.36 261.628 415.072 263.927C426.895 273.907 424.576 280.852 408.116 284.764C395.743 280.639 387.24 272.922 382.609 261.612Z" fill="#95C84F"/>
<path fill-rule="evenodd" clip-rule="evenodd" d="M619.13 289.394C612.948 289.394 606.762 289.394 600.58 289.394C600.58 284.764 600.58 280.133 600.58 275.503C611.321 261.359 625.234 258.272 642.319 266.242C635.812 275.827 628.081 283.544 619.13 289.394Z" fill="#92C749"/>
<path fill-rule="evenodd" clip-rule="evenodd" d="M289.855 261.612C301.741 268.548 301.741 276.265 289.855 284.764C284.446 277.044 284.446 269.326 289.855 261.612Z" fill="#5B894A"/>
<path fill-rule="evenodd" clip-rule="evenodd" d="M503.188 289.394C497.057 290.181 491.645 288.637 486.957 284.764C483.209 275.139 483.984 265.878 489.275 256.982C501.301 264.255 505.939 275.059 503.188 289.394Z" fill="#94C84B"/>
<path fill-rule="evenodd" clip-rule="evenodd" d="M262.029 256.982C267.825 257.34 271.69 260.427 273.623 266.242C278.838 279.867 280.384 293.758 278.261 307.915C259.919 327.924 249.871 324.065 248.116 296.339C251.485 282.881 256.123 269.762 262.029 256.982Z" fill="#5A8848"/>
<path fill-rule="evenodd" clip-rule="evenodd" d="M577.391 256.982C580.355 259.745 581.899 263.604 582.029 268.558C580.819 284.659 576.181 286.975 568.116 275.503C569.285 268.22 572.373 262.046 577.391 256.982Z" fill="#50813F"/>
<path fill-rule="evenodd" clip-rule="evenodd" d="M600.58 275.503C600.58 280.133 600.58 284.764 600.58 289.394C606.762 289.394 612.948 289.394 619.13 289.394C612.55 293.798 604.823 295.342 595.942 294.024C595.942 292.481 595.942 290.937 595.942 289.394C594.843 283.416 596.387 278.786 600.58 275.503Z" fill="#B5D187"/>
<path fill-rule="evenodd" clip-rule="evenodd" d="M354.783 312.545C334.413 312.427 325.138 301.623 326.957 280.133C346.149 282.324 355.424 293.128 354.783 312.545Z" fill="#558443"/>
<path fill-rule="evenodd" clip-rule="evenodd" d="M549.565 289.394C565.023 289.394 580.485 289.394 595.942 289.394C595.942 290.937 595.942 292.481 595.942 294.024C592.849 295.568 589.76 297.111 586.667 298.655C575.847 292.481 565.023 292.481 554.203 298.655C540.29 298.655 526.377 298.655 512.464 298.655C524.833 295.568 537.197 292.481 549.565 289.394Z" fill="#79777A"/>
<path fill-rule="evenodd" clip-rule="evenodd" d="M554.203 298.655C565.023 292.481 575.847 292.481 586.667 298.655C582.335 303.598 580.786 309.772 582.029 317.176C582.029 320.263 580.485 321.806 577.391 321.806C574.405 309.564 566.674 301.847 554.203 298.655Z" fill="#434344"/>
<path fill-rule="evenodd" clip-rule="evenodd" d="M303.768 284.764C324.754 299.135 327.072 316.113 310.725 335.697C291.369 321.481 289.05 304.504 303.768 284.764Z" fill="#96C850"/>
<path fill-rule="evenodd" clip-rule="evenodd" d="M415.072 303.285C431.071 299.842 438.8 306.015 438.261 321.806C424.966 322.412 417.236 316.238 415.072 303.285Z" fill="#669257"/>
<path fill-rule="evenodd" clip-rule="evenodd" d="M642.319 298.655C646.956 298.655 651.594 298.655 656.232 298.655C656.57 318.195 647.295 329 628.406 331.067C625.665 316.364 630.303 305.56 642.319 298.655Z" fill="#578546"/>
<path fill-rule="evenodd" clip-rule="evenodd" d="M368.696 331.067C368.696 329.523 368.696 327.98 368.696 326.436C369.798 316.505 374.436 308.788 382.609 303.285C388.494 313.447 388.494 323.48 382.609 333.382C377.615 335.556 372.977 334.784 368.696 331.067Z" fill="#578647"/>
<path fill-rule="evenodd" clip-rule="evenodd" d="M526.377 303.285C535.142 302.343 542.099 305.43 547.246 312.545C549.491 323.718 547.942 334.522 542.609 344.958C529.47 334.14 524.058 320.249 526.377 303.285Z" fill="#5E8A4D"/>
<path fill-rule="evenodd" clip-rule="evenodd" d="M582.029 317.176C590.136 333.373 585.498 345.721 568.116 354.218C562.824 345.322 562.05 336.061 565.797 326.436C568.909 322.953 572.772 321.409 577.391 321.806C580.485 321.806 582.029 320.263 582.029 317.176Z" fill="#669055"/>
<path fill-rule="evenodd" clip-rule="evenodd" d="M693.333 298.655C706.184 319.567 704.635 340.404 688.696 361.164C684.299 363.399 679.661 364.171 674.783 363.479C671.244 351.25 670.47 338.902 672.464 326.436C682.212 319.052 689.169 309.791 693.333 298.655Z" fill="#90C746"/>
<path fill-rule="evenodd" clip-rule="evenodd" d="M354.783 335.697C354.783 337.24 354.783 338.784 354.783 340.327C341.785 351.684 327.872 352.456 313.043 342.642C325.587 331.026 339.5 328.711 354.783 335.697Z" fill="#5D8A4D"/>
<path fill-rule="evenodd" clip-rule="evenodd" d="M447.536 261.612C449.082 261.612 450.628 261.612 452.174 261.612C442.975 284.233 448.385 302.755 468.406 317.176C480.872 308.545 492.466 299.284 503.188 289.394C510.627 285.75 513.721 279.576 512.464 270.873C515.557 270.873 518.646 270.873 521.739 270.873C521.132 274.931 522.676 278.018 526.377 280.133C531.098 276.927 535.736 273.84 540.29 270.873C541.834 270.873 543.383 270.873 544.928 270.873C538.184 279.037 539.733 285.211 549.565 289.394C537.197 292.481 524.832 295.568 512.464 298.655C486.66 310.554 471.202 330.618 466.087 358.848C476.378 380.723 481.785 403.875 482.319 428.303C496.394 442.631 511.082 444.174 526.377 432.933C529.47 432.933 531.014 434.477 531.014 437.564C524.499 454.746 530.681 461.691 549.565 458.4C558.349 431.715 576.9 420.911 605.217 425.988C609.099 421.305 610.643 415.904 609.855 409.782C612.948 415.955 616.037 422.129 619.13 428.303C620.717 432.184 623.805 433.728 628.406 432.933C628.406 434.477 628.406 436.02 628.406 437.564C609.79 436.797 591.239 437.569 572.754 439.879C558.98 455.826 560.524 469.716 577.391 481.552C569.206 484.515 561.475 483.742 554.203 479.236C546.017 474.787 536.742 473.24 526.377 474.606C527.476 480.584 525.932 485.214 521.739 488.497C520.696 474.393 514.514 463.591 503.188 456.085C494.122 449.463 486.395 451.006 480 460.715C477.139 461.228 474.82 462.771 473.043 465.345C470.052 483.228 470.822 500.98 475.362 518.594C473.605 528.281 470.511 537.541 466.087 546.376C469.315 555.141 473.183 563.628 477.681 571.842C506.198 586.493 534.799 601.152 563.478 615.83C552.176 614.89 541.352 611.029 531.014 604.255C525.714 615.64 527.258 626.448 535.652 636.667C520.584 655.29 517.491 655.29 526.377 636.667C519.61 627.022 513.428 616.988 507.826 606.57C495.026 607.431 481.888 605.116 468.406 599.624C467.84 607.875 470.159 615.59 475.362 622.776C475.362 624.318 475.362 625.864 475.362 627.406C463.177 614.33 448.492 605.069 431.304 599.624C423.193 600.773 419.328 605.403 419.71 613.515C413.785 612.209 409.147 609.121 405.797 604.255C394.848 603.449 384.026 601.907 373.333 599.624C368.735 600.421 365.643 598.874 364.058 594.994C384.657 591.271 402.434 582.011 417.391 567.212C422.371 545.38 427.781 523.771 433.623 502.388C432.077 496.216 430.531 490.039 428.985 483.867C406.852 467.883 383.663 453.991 359.42 442.194C369.691 438.638 380.512 435.551 391.884 432.933C398.85 440.689 405.033 449.178 410.435 458.4C418.403 460.002 426.133 462.317 433.623 465.345C439.678 449.233 439.678 433.798 433.623 419.042C433.574 412.016 430.483 406.614 424.348 402.836C411.731 400.051 399.364 400.823 387.246 405.152C385.701 405.152 384.154 405.152 382.609 405.152C388.636 400.054 390.955 393.88 389.565 386.63C384.064 376.552 375.562 371.922 364.058 372.739C364.058 371.196 364.058 369.652 364.058 368.109C368.122 368.715 371.214 367.171 373.333 363.479C370.398 352.896 364.215 345.179 354.783 340.327C354.783 338.784 354.783 337.24 354.783 335.697C354.783 327.98 354.783 320.263 354.783 312.545C360.478 316.28 365.116 320.91 368.696 326.436C368.696 327.98 368.696 329.523 368.696 331.067C374.441 345.369 381.398 359.26 389.565 372.739C394.097 378.637 397.962 378.637 401.159 372.739C402.705 372.739 404.251 372.739 405.797 372.739C406.392 380.101 409.484 386.274 415.072 391.261C427.948 393.988 438.769 400.162 447.536 409.782C447.252 382.924 448.799 355.913 452.174 328.752C446.465 312.265 438.735 296.831 428.985 282.448C440.915 280.451 447.099 273.505 447.536 261.612Z" fill="#3F3F40"/>
<path fill-rule="evenodd" clip-rule="evenodd" d="M484.638 344.958C518.363 342.526 521.452 351.015 493.913 370.424C487.917 372.693 481.73 373.465 475.362 372.739C474.217 361.82 477.306 352.559 484.638 344.958Z" fill="#689258"/>
<path fill-rule="evenodd" clip-rule="evenodd" d="M600.58 321.806C605.217 321.806 609.855 321.806 614.493 321.806C617.201 337.932 613.338 351.823 602.899 363.479C590.145 349.609 589.375 335.718 600.58 321.806Z" fill="#5F894C"/>
<path fill-rule="evenodd" clip-rule="evenodd" d="M275.942 395.891C271.304 395.891 266.667 395.891 262.029 395.891C256.047 393.309 252.182 388.678 250.435 382C243.294 333.754 252.569 329.124 278.261 368.109C281.403 377.822 280.63 387.082 275.942 395.891Z" fill="#94C94C"/>
<path fill-rule="evenodd" clip-rule="evenodd" d="M405.797 372.739C404.251 372.739 402.705 372.739 401.159 372.739C388.678 355.981 391.769 342.09 410.435 331.067C420.924 335.544 431.745 338.631 442.899 340.327C442.899 346.501 442.899 352.675 442.899 358.848C431.753 359.344 423.251 354.714 417.391 344.958C416.297 355.66 412.432 364.92 405.797 372.739Z" fill="#608D50"/>
<path fill-rule="evenodd" clip-rule="evenodd" d="M697.971 363.479C698.249 360.964 699.794 359.421 702.609 358.848C708.624 370.3 708.624 381.104 702.609 391.261C703.977 380.91 702.428 371.649 697.971 363.479Z" fill="#89A87C"/>
<path fill-rule="evenodd" clip-rule="evenodd" d="M289.855 354.218C315.511 356.666 327.878 370.557 326.957 395.891C303.053 393.244 290.686 379.353 289.855 354.218Z" fill="#5E8B4C"/>
<path fill-rule="evenodd" clip-rule="evenodd" d="M364.058 368.109C364.058 369.652 364.058 371.196 364.058 372.739C354.855 378.269 345.58 378.269 336.232 372.739C345.025 368.268 354.3 366.725 364.058 368.109Z" fill="#5E894C"/>
<path fill-rule="evenodd" clip-rule="evenodd" d="M619.13 405.152C617.586 405.152 616.037 405.152 614.493 405.152C614.061 382.349 624.886 366.914 646.957 358.848C651.219 373.324 648.9 387.215 640 400.521C633.711 404.597 626.755 406.14 619.13 405.152Z" fill="#92C749"/>
<path fill-rule="evenodd" clip-rule="evenodd" d="M697.971 363.479C702.428 371.649 703.977 380.91 702.609 391.261C683.432 417.573 674.931 414.486 677.101 382C683.58 374.729 690.537 368.555 697.971 363.479Z" fill="#568543"/>
<path fill-rule="evenodd" clip-rule="evenodd" d="M540.29 368.109C551.221 367.353 562.041 368.125 572.754 370.424C563.937 390.825 548.475 400.857 526.377 400.521C524.828 386.672 529.466 375.868 540.29 368.109Z" fill="#5A8847"/>
<path fill-rule="evenodd" clip-rule="evenodd" d="M489.275 386.63C497.568 385.31 505.299 386.853 512.464 391.261C506.797 402.736 497.521 407.366 484.638 405.151C484.327 398.397 485.871 392.223 489.275 386.63Z" fill="#5C8A4B"/>
<path fill-rule="evenodd" clip-rule="evenodd" d="M433.623 419.042C439.678 433.798 439.678 449.233 433.623 465.345C426.133 462.317 418.403 460.002 410.435 458.4C405.033 449.178 398.85 440.689 391.884 432.933C391.884 429.846 390.338 428.303 387.246 428.303C387.246 420.586 387.246 412.869 387.246 405.152C399.364 400.823 411.731 400.051 424.348 402.836C430.483 406.614 433.574 412.016 433.623 419.042Z" fill="#EEF0ED"/>
<path fill-rule="evenodd" clip-rule="evenodd" d="M591.304 391.261C596.633 392.608 599.726 396.467 600.58 402.836C600.932 415.598 594.75 421 582.029 419.042C582.558 408.773 585.646 399.512 591.304 391.261Z" fill="#5F8B4E"/>
<path fill-rule="evenodd" clip-rule="evenodd" d="M262.029 395.891C266.667 395.891 271.304 395.891 275.942 395.891C286.329 399.43 297.151 403.289 308.406 407.467C311.895 410.573 313.441 414.431 313.043 419.042C313.043 422.129 313.043 425.216 313.043 428.303C306.674 429.029 300.49 428.257 294.493 425.988C284.154 414.874 273.333 404.841 262.029 395.891Z" fill="#649052"/>
<path fill-rule="evenodd" clip-rule="evenodd" d="M382.609 405.152C384.154 405.152 385.701 405.152 387.246 405.152C387.246 412.869 387.246 420.586 387.246 428.303C385.701 428.303 384.154 428.303 382.609 428.303C365.919 422.84 359.736 412.036 364.058 395.891C370.365 399.039 376.548 402.126 382.609 405.152Z" fill="#578645"/>
<path fill-rule="evenodd" clip-rule="evenodd" d="M609.855 409.782C609.855 406.695 611.399 405.152 614.493 405.152C616.037 405.152 617.586 405.152 619.13 405.152C619.13 412.869 619.13 420.586 619.13 428.303C616.037 422.129 612.948 415.955 609.855 409.782Z" fill="#9FA19E"/>
<path fill-rule="evenodd" clip-rule="evenodd" d="M433.623 419.042C426.258 428.839 416.983 430.382 405.797 423.673C414.057 414.198 423.332 412.654 433.623 419.042Z" fill="#618D52"/>
<path fill-rule="evenodd" clip-rule="evenodd" d="M531.015 437.564C531.015 434.477 529.47 432.933 526.377 432.933C530.639 408.549 544.552 399.289 568.116 405.152C562.356 415.49 556.169 425.523 549.565 435.248C543.569 437.517 537.382 438.289 531.015 437.564Z" fill="#97C953"/>
<path fill-rule="evenodd" clip-rule="evenodd" d="M665.507 437.564C660.907 436.769 657.818 438.313 656.232 442.194C646.655 442.114 637.38 440.571 628.406 437.564C628.406 436.02 628.406 434.477 628.406 432.933C644.35 419.536 662.901 415.678 684.058 421.358C678.349 427.862 672.167 433.264 665.507 437.564Z" fill="#5B874A"/>
<path fill-rule="evenodd" clip-rule="evenodd" d="M313.043 419.042C334.979 433.232 358.168 436.319 382.609 428.303C384.154 428.303 385.701 428.303 387.246 428.303C390.338 428.303 391.884 429.846 391.884 432.933C380.512 435.551 369.691 438.638 359.42 442.194C347.551 440.797 336.73 442.341 326.957 446.824C325.411 446.824 323.865 446.824 322.319 446.824C323.575 438.121 320.483 431.947 313.043 428.303C313.043 425.216 313.043 422.129 313.043 419.042Z" fill="#636564"/>
<path fill-rule="evenodd" clip-rule="evenodd" d="M266.667 428.303C288.518 428.51 299.339 439.314 299.13 460.715C279.245 459.96 268.423 449.156 266.667 428.303Z" fill="#92C749"/>
<path fill-rule="evenodd" clip-rule="evenodd" d="M665.507 437.564C671.156 440.626 677.338 443.713 684.058 446.824C683.483 449.633 681.939 451.177 679.42 451.455C672.839 447.051 665.113 445.507 656.232 446.824C656.232 445.281 656.232 443.737 656.232 442.194C657.818 438.313 660.907 436.769 665.507 437.564Z" fill="#BCD2B5"/>
<path fill-rule="evenodd" clip-rule="evenodd" d="M656.232 446.824C665.113 445.507 672.839 447.051 679.42 451.455C671.648 462.26 660.828 466.892 646.956 465.345C645.7 456.642 648.793 450.468 656.232 446.824Z" fill="#5D8A4A"/>
<path fill-rule="evenodd" clip-rule="evenodd" d="M354.783 451.455C360.966 451.455 367.15 451.455 373.333 451.455C372.534 477.009 360.166 486.27 336.232 479.236C340.717 468.633 346.9 459.372 354.783 451.455Z" fill="#5F8B4D"/>
<path fill-rule="evenodd" clip-rule="evenodd" d="M503.188 456.085C500.095 456.085 498.551 457.628 498.551 460.715C493.913 460.715 489.275 460.715 484.638 460.715C483.093 460.715 481.544 460.715 480 460.715C486.395 451.006 494.122 449.463 503.188 456.085Z" fill="#B6C1B2"/>
<path fill-rule="evenodd" clip-rule="evenodd" d="M322.319 446.824C323.865 446.824 325.411 446.824 326.957 446.824C335.107 463.554 330.469 475.903 313.043 483.867C305.306 468.286 308.398 455.938 322.319 446.824Z" fill="#5B8848"/>
<path fill-rule="evenodd" clip-rule="evenodd" d="M484.638 460.715C489.275 460.715 493.913 460.715 498.551 460.715C503.787 470.568 504.561 481.371 500.87 493.127C488.158 485.872 482.746 475.064 484.638 460.715Z" fill="#5A8647"/>
<path fill-rule="evenodd" clip-rule="evenodd" d="M628.406 469.976C622.224 473.064 617.586 477.694 614.493 483.867C606.762 483.867 599.035 483.867 591.304 483.867C588.169 465.392 595.896 457.673 614.493 460.715C620.675 462.258 626.861 463.804 633.044 465.345C632.468 468.156 630.924 469.698 628.406 469.976Z" fill="#578645"/>
<path fill-rule="evenodd" clip-rule="evenodd" d="M554.203 479.236C546.472 479.236 538.746 479.236 531.014 479.236C531.014 483.867 531.014 488.497 531.014 493.127C527.921 493.127 524.832 493.127 521.739 493.127C521.739 491.585 521.739 490.039 521.739 488.497C525.932 485.214 527.476 480.584 526.377 474.606C536.742 473.24 546.017 474.787 554.203 479.236Z" fill="#A7A7A8"/>
<path fill-rule="evenodd" clip-rule="evenodd" d="M628.406 469.976C640.13 473.06 652.494 476.143 665.507 479.236C664.932 482.047 663.388 483.589 660.87 483.867C646.368 477.106 632.454 478.648 619.13 488.497C619.13 485.409 617.586 483.867 614.493 483.867C617.586 477.694 622.224 473.064 628.406 469.976Z" fill="#AEC6A4"/>
<path fill-rule="evenodd" clip-rule="evenodd" d="M382.609 474.606C390.338 474.606 398.067 474.606 405.797 474.606C406.49 479.477 405.717 484.107 403.478 488.497C375.74 510.449 368.784 505.819 382.609 474.606Z" fill="#98CA54"/>
<path fill-rule="evenodd" clip-rule="evenodd" d="M660.87 483.867C654.089 488.303 647.907 493.701 642.319 500.073C634.741 502.36 627.01 503.129 619.13 502.388C619.13 497.758 619.13 493.127 619.13 488.497C632.454 478.648 646.368 477.106 660.87 483.867Z" fill="#598647"/>
<path fill-rule="evenodd" clip-rule="evenodd" d="M521.739 493.127C524.832 493.127 527.921 493.127 531.014 493.127C544.835 499.281 551.017 510.088 549.565 525.539C530.374 523.349 521.099 512.542 521.739 493.127Z" fill="#98CA57"/>
<path fill-rule="evenodd" clip-rule="evenodd" d="M558.841 502.388C574.298 499.299 583.573 505.476 586.667 520.909C569.039 528.068 559.763 521.895 558.841 502.388Z" fill="#578544"/>
<path fill-rule="evenodd" clip-rule="evenodd" d="M364.058 594.994C365.643 598.874 368.735 600.421 373.333 599.624C365.039 604.819 355.764 605.593 345.507 601.939C351.281 598.277 357.465 595.962 364.058 594.994Z" fill="#9D9D9D"/>
<path fill-rule="evenodd" clip-rule="evenodd" d="M405.797 604.255C409.147 609.121 413.785 612.209 419.71 613.515C443.938 634.62 442.392 636.167 415.072 618.145C410.526 625.003 405.115 631.18 398.841 636.667C400.868 626.216 403.187 615.414 405.797 604.255Z" fill="#757575"/>
<path fill-rule="evenodd" clip-rule="evenodd" d="M475.362 622.776C482.713 625.1 485.032 629.73 482.319 636.667C478.994 634.148 476.675 631.059 475.362 627.406C475.362 625.864 475.362 624.318 475.362 622.776Z" fill="#9E9E9E"/>
</g>
<defs>
<clipPath id="clip0_4_1110">
<rect width="960" height="764" fill="white"/>
</clipPath>
</defs>
</svg>
